<svg xmlns="http://www.w3.org/2000/svg" xmlns:xlink="http://www.w3.org/1999/xlink" version="1.1" x="0px" y="0px" viewBox="0 0 160 200" style="enable-background:new 0 0 160 160;" xml:space="preserve"><g><path d="M135.7,78.4c-3.3-5-8.1-8.9-13.6-11c0.4-1.4,0.7-2.9,0.7-4.5c0-4.7-2.1-9.2-5.7-12.2c-0.2-10.3-8.6-18.7-19-18.7   c-0.1,0-0.2,0-0.3,0c-4.8-4.7-11.1-7.2-17.9-7.2S66.9,27.3,62.1,32c-10-0.2-18.5,7.7-19.2,17.6c-3.7,3-5.7,7.5-5.7,12.3   c0,1.9,0.3,3.7,1,5.4c-5.6,2.2-10.5,6-13.9,11.2c-4.7,7.2-6,16-3.6,24.3c0.9,3,3.6,5,6.7,5c0.3,0,0.6,0,0.8,0   c7-0.8,13.3-4.1,18-9.2c0.8,1.9,1.7,3.8,2.8,5.7L60.5,124c4.1,7,11.3,11.2,19.5,11.2c0,0,0,0,0,0c8.1,0,15.4-4.2,19.5-11.2   l11.5-19.9c1.1-1.8,2-3.7,2.8-5.7c4.7,5.1,11,8.4,18,9.2c0.3,0,0.6,0,0.8,0c3.1,0,5.8-2,6.7-5C141.8,94.4,140.4,85.6,135.7,78.4z    M132.2,103.7c-6.7-0.8-12.8-4.3-16.9-9.6c1-3.3,1.6-6.6,1.9-9.9l14.1,8.9l-14-14.5c0-1.2-0.1-2.3-0.3-3.5c1.4-1.1,2.5-2.5,3.5-4.1   c4.8,1.9,8.9,5.2,11.8,9.6c4.1,6.2,5.2,13.8,3.1,21C135.1,103,133.7,103.9,132.2,103.7z M80,131.3c-6.7,0-12.7-3.5-16-9.2   l-11.5-19.9c-4.6-8-6.5-17-5.7-25.7c1.9,0.8,4.1,1.3,6.3,1.3c4.9,0,9.6-2.3,12.5-6.1C69.9,74.5,74.8,76,80,76c5,0,9.7-1.4,13.8-4   c3,4.2,7.8,6.8,13.1,6.8c2.3,0,4.4-0.5,6.4-1.4c0.6,8.4-1.3,16.9-5.8,24.7L96,122C92.7,127.8,86.7,131.3,80,131.3z M24.5,101.6   c-2.1-7.1-1-14.8,3.1-21c3-4.5,7.3-7.9,12.3-9.8c0.9,1.3,1.9,2.4,3.1,3.3c-0.2,1.4-0.3,2.9-0.4,4.4L28.7,93l14.1-8.9   c0.3,3.3,0.9,6.7,1.9,9.9c-4.1,5.3-10.2,8.8-16.9,9.6C26.3,103.9,24.9,103,24.5,101.6z M41.2,61.9c0-3.8,1.8-7.3,4.9-9.6l0.8-0.6   l0-1c0.2-8.1,6.9-14.7,15-14.7c0.3,0,0.6,0,0.9,0l0.9,0.1l0.6-0.7c4.1-4.3,9.7-6.7,15.6-6.7s11.5,2.4,15.6,6.7l0.6,0.7l0.9-0.1   c0.3,0,0.6,0,0.9,0c8.3,0,15,6.7,15,15c0,0.2,0,0.4,0,0.5l-0.1,1.1l0.9,0.6c3.1,2.2,4.9,5.8,4.9,9.6c0,6.6-5.4,11.9-11.9,11.9   c-4.5,0-8.6-2.5-10.7-6.6l-1.1-2.2l-1.9,1.5C89.4,70.5,84.8,72,80,72c-5,0-9.7-1.6-13.6-4.8l-1.8-1.5l-1.2,2c-2.1,3.7-6.1,6-10.3,6   C46.5,73.8,41.2,68.4,41.2,61.9z"/><path d="M88.8,109.3L88.8,109.3c-5.5,3.1-12.2,3.1-17.6,0l0,0l-2,3.5l8.8,4.9v8.3h4v-8.3l8.8-4.9L88.8,109.3z"/><circle cx="58.1" cy="91.2" r="4.2"/><circle cx="101.9" cy="91.2" r="4.2"/></g><text x="0" y="175" fill="#000000" font-size="5px" font-weight="bold" font-family="'Helvetica Neue', Helvetica, Arial-Unicode, Arial, Sans-serif">Created by Symbolon</text><text x="0" y="180" fill="#000000" font-size="5px" font-weight="bold" font-family="'Helvetica Neue', Helvetica, Arial-Unicode, Arial, Sans-serif">from the Noun Project</text></svg>